<svg width="512" height="512" viewBox="0 0 512 512" fill="none" xmlns="http://www.w3.org/2000/svg">
  <!-- Green Location Pin -->
  <path d="M256 0C132.3 0 32 100.3 32 224C32 358 236 492 246.6 507.7C249.1 511.4 252.3 512 256 512C259.7 512 262.9 511.4 265.4 507.7C276 492 480 358 480 224C480 100.3 379.7 0 256 0Z" fill="#84BD00"/>
  
  <!-- White Circle Background (Optional, helps contrast if needed, but lets try clean white icon on green first) -->
  <!-- <circle cx="256" cy="224" r="160" fill="white"/> -->

  <!-- Wheat Stalk (White) -->
  <g fill="white">
    <!-- Top Grain -->
    <path d="M256 64C256 64 224 104 224 128C224 145.7 238.3 160 256 160C273.7 160 288 145.7 288 128C288 104 256 64 256 64Z"/>
    
    <!-- Left Grains -->
    <path d="M240 160C240 160 192 176 192 208C192 225.7 206.3 240 224 240C232 240 240 236 248 232V176L240 160Z"/>
    <path d="M240 240C240 240 192 256 192 288C192 305.7 206.3 320 224 320C232 320 240 316 248 312V256L240 240Z"/>

    <!-- Right Grains -->
    <path d="M272 160C272 160 320 176 320 208C320 225.7 305.7 240 288 240C280 240 272 236 264 232V176L272 160Z"/>
    <path d="M272 240C272 240 320 256 320 288C320 305.7 305.7 320 288 320C280 320 272 316 264 312V256L272 240Z"/>
    
    <!-- Winding Road / Stem -->
    <path d="M248 320H264V340C264 340 264 380 300 400C324 413.3 320 440 320 440H280C280 440 280 420 256 400C232 380 232 360 232 360H192C192 360 192 400 220 440H180C160 400 180 350 210 330C230 316 248 320 248 320Z"/>
    <!-- Simplified Road/Stem to match typical icons -->
     <path d="M251 320 L261 320 C261 320 261 360 300 400 L280 420 C240 380 240 360 240 360 L200 400 L180 380 C180 380 200 360 251 320 Z" />
  </g>
  
  <!-- Clean Stem/Road Replacement -->
  <path d="M246 320H266V336C266 360 290 380 310 400L290 420C270 400 246 380 246 356V320Z" fill="white"/>
  <path d="M246 320H266C266 320 220 360 200 400L180 380C200 340 246 320 246 320Z" fill="white"/>

</svg>